<?xml version="1.0" standalone="no"?>
<!DOCTYPE svg PUBLIC "-//W3C//DTD SVG 20010904//EN"
 "http://www.w3.org/TR/2001/REC-SVG-20010904/DTD/svg10.dtd">
<svg version="1.0" xmlns="http://www.w3.org/2000/svg"
 width="150.000000pt" height="60.000000pt" viewBox="0 0 150.000000 60.000000"
 preserveAspectRatio="xMidYMid meet">

<g transform="translate(0.000000,60.000000) scale(0.100000,-0.100000)"
fill="#000000" stroke="none">
<path d="M128 533 c-21 -5 -33 -43 -24 -71 9 -28 32 -32 194 -32 129 0 144 2
162 20 24 24 25 39 6 66 -13 17 -29 19 -168 21 -84 1 -161 -1 -170 -4z"/>
<path d="M700 425 c0 -78 3 -95 15 -95 9 0 15 10 15 26 0 32 18 66 31 59 5 -4
9 -17 9 -30 0 -34 10 -55 26 -55 10 0 14 14 14 50 0 41 -4 52 -24 65 -13 8
-31 13 -40 9 -13 -5 -16 1 -16 30 0 25 -4 36 -15 36 -12 0 -15 -17 -15 -95z"/>
<path d="M535 500 c-10 -16 4 -30 30 -30 23 0 24 -4 27 -67 2 -55 6 -68 21
-71 15 -3 17 5 17 67 0 69 0 70 28 73 16 2 27 9 27 18 0 12 -16 16 -72 18 -42
2 -74 -1 -78 -8z"/>
<path d="M950 420 c0 -73 3 -90 15 -90 10 0 15 10 15 30 0 38 7 38 40 -2 16
-19 31 -28 38 -24 18 11 15 21 -14 56 l-27 31 28 29 c17 17 25 35 22 44 -9 24
-24 19 -49 -14 -12 -16 -25 -30 -30 -30 -4 0 -8 14 -8 30 0 20 -5 30 -15 30
-12 0 -15 -17 -15 -90z"/>
<path d="M1112 490 c-60 -56 -25 -160 54 -160 41 0 56 19 52 67 -2 31 -7 39
-27 41 -33 5 -51 -15 -28 -32 22 -17 22 -36 -1 -36 -26 0 -42 20 -42 52 0 32
28 51 64 42 31 -7 45 14 21 33 -27 19 -68 16 -93 -7z"/>
<path d="M1240 420 c0 -73 3 -90 15 -90 11 0 15 12 15 45 0 49 8 56 28 25 16
-26 38 -25 54 3 12 21 13 19 18 -23 4 -33 10 -46 23 -48 16 -3 18 4 15 84 -2
54 -7 89 -14 91 -7 2 -25 -15 -42 -37 l-30 -41 -23 33 c-50 71 -59 65 -59 -42z"/>
<path d="M840 440 c-24 -24 -26 -57 -4 -88 12 -18 24 -22 52 -20 41 3 54 33
15 33 -11 0 -25 3 -29 8 -4 4 6 7 23 7 38 0 49 24 28 56 -19 30 -58 31 -85 4z
m60 -30 c0 -5 -9 -10 -21 -10 -11 0 -17 5 -14 10 3 6 13 10 21 10 8 0 14 -4
14 -10z"/>
<path d="M112 398 c-15 -15 -15 -61 0 -76 8 -8 53 -12 134 -12 98 0 126 3 138
16 19 18 21 55 4 72 -17 17 -259 17 -276 0z"/>
<path d="M118 279 c-21 -12 -24 -59 -6 -77 16 -16 210 -16 226 0 17 17 15 54
-4 72 -12 12 -37 16 -107 16 -51 0 -100 -5 -109 -11z"/>
<path d="M112 148 c-19 -19 -15 -66 7 -78 25 -13 127 -13 152 0 22 12 26 59 7
78 -16 16 -150 16 -166 0z"/>
<path d="M537 153 c-8 -8 -9 -53 -1 -53 3 0 12 7 20 15 9 8 11 15 5 15 -18 0
-12 18 7 23 14 4 13 5 -4 6 -11 0 -24 -2 -27 -6z"/>
<path d="M653 125 c0 -22 2 -30 4 -17 2 12 2 30 0 40 -3 9 -5 -1 -4 -23z"/>
<path d="M759 144 c-9 -11 -10 -20 -2 -32 13 -22 37 -22 41 1 2 9 -2 17 -8 17
-6 0 -8 -4 -5 -10 3 -5 2 -10 -4 -10 -15 0 -21 14 -11 29 4 8 13 10 19 7 6 -4
11 -2 11 3 0 16 -26 13 -41 -5z"/>
<path d="M827 153 c-14 -13 -7 -51 10 -57 24 -10 46 21 32 45 -10 19 -30 25
-42 12z m33 -29 c0 -8 -7 -14 -15 -14 -15 0 -21 21 -9 33 10 9 24 -2 24 -19z"/>
<path d="M891 135 c-1 -24 3 -31 18 -31 14 0 17 4 10 12 -7 8 -6 14 1 19 5 3
10 11 10 17 0 7 -5 7 -14 -1 -11 -9 -15 -9 -19 1 -3 7 -6 -1 -6 -17z"/>
<path d="M951 130 c0 -33 1 -34 10 -11 6 16 6 28 -1 35 -7 7 -10 -1 -9 -24z"/>
<path d="M984 138 c-16 -18 -17 -21 -2 -15 11 4 18 0 21 -11 3 -9 5 -2 6 16 1
38 0 39 -25 10z"/>
<path d="M1030 125 c0 -28 4 -35 20 -35 11 0 20 5 20 10 0 6 -8 10 -17 10 -15
0 -16 2 -3 10 10 6 11 10 3 10 -19 0 -16 18 5 23 13 4 11 5 -5 6 -20 1 -23 -4
-23 -34z"/>
<path d="M1080 129 c0 -24 3 -30 9 -20 8 12 12 12 25 2 14 -12 16 -9 15 20 -1
19 -3 26 -6 16 -5 -18 -6 -18 -24 -1 -18 17 -19 16 -19 -17z"/>
<path d="M595 130 c-8 -13 13 -40 29 -39 7 0 6 2 -1 6 -7 2 -13 12 -13 21 0
15 2 15 10 2 8 -13 10 -12 10 3 0 18 -25 23 -35 7z"/>
<path d="M682 120 c0 -14 2 -19 5 -12 2 6 2 18 0 25 -3 6 -5 1 -5 -13z"/>
<path d="M704 118 c0 -23 31 -23 33 0 1 11 -5 18 -16 18 -9 0 -17 -8 -17 -18z"/>
</g>
</svg>
