<?xml version="1.0" standalone="no"?>
<!DOCTYPE svg PUBLIC "-//W3C//DTD SVG 20010904//EN"
 "http://www.w3.org/TR/2001/REC-SVG-20010904/DTD/svg10.dtd">
<svg version="1.0" xmlns="http://www.w3.org/2000/svg"
 width="200.000000pt" height="44.000000pt" viewBox="0 0 200.000000 44.000000"
 preserveAspectRatio="xMidYMid meet">

<g transform="translate(0.000000,44.000000) scale(0.100000,-0.100000)"
fill="#000000" stroke="none">
<path d="M233 338 c-12 -29 -25 -65 -28 -79 l-6 -26 -37 18 c-20 11 -51 19
-68 19 l-33 0 26 -47 c15 -27 36 -58 47 -71 l21 -23 -23 -18 -24 -17 42 -14
c44 -15 137 -17 182 -5 35 9 77 53 60 64 -9 5 -3 25 22 74 l33 67 -40 0 c-24
0 -48 -7 -59 -17 -10 -9 -20 -14 -23 -11 -3 2 -20 35 -38 72 l-33 68 -21 -54z"/>
<path d="M1698 283 c-62 -9 -90 -103 -47 -157 16 -20 29 -26 60 -26 22 0 49 5
60 10 13 7 19 7 19 0 0 -5 7 -10 15 -10 11 0 15 12 15 51 l0 50 -47 -3 c-49
-3 -71 -24 -31 -30 34 -5 28 -23 -10 -26 -27 -3 -34 1 -42 24 -21 55 21 99 65
70 27 -18 65 -21 65 -6 0 15 -38 50 -54 50 -8 0 -20 2 -28 3 -7 2 -25 2 -40 0z"/>
<path d="M540 190 c0 -89 0 -90 24 -90 21 0 25 6 28 33 3 29 6 32 41 35 29 3
37 7 37 23 0 16 -7 19 -40 19 -28 0 -40 4 -40 14 0 11 14 16 47 18 36 2 49 7
51 21 3 15 -6 17 -72 17 l-76 0 0 -90z"/>
<path d="M740 190 l0 -90 80 0 c73 0 80 2 80 20 0 17 -7 20 -50 20 -38 0 -50
4 -50 15 0 11 11 15 40 15 33 0 40 3 40 20 0 17 -7 20 -40 20 -29 0 -40 4 -40
15 0 11 12 15 50 15 43 0 50 3 50 20 0 18 -7 20 -80 20 l-80 0 0 -90z"/>
<path d="M960 190 l0 -90 75 0 c68 0 75 2 75 19 0 17 -8 20 -47 23 l-47 3 3
68 2 67 -30 0 -31 0 0 -90z"/>
<path d="M1170 190 c0 -89 0 -90 25 -90 25 0 25 1 25 90 0 89 0 90 -25 90 -25
0 -25 -1 -25 -90z"/>
<path d="M1310 239 l29 -41 -29 -43 c-17 -24 -30 -46 -30 -49 0 -3 13 -6 28
-6 20 0 33 7 42 25 7 14 17 25 21 25 3 0 14 -11 23 -25 11 -17 26 -25 46 -25
17 0 30 3 30 6 0 3 -13 25 -30 49 l-29 43 29 41 30 41 -34 0 c-26 0 -36 -5
-41 -20 -3 -11 -10 -20 -15 -20 -5 0 -14 9 -20 20 -8 14 -21 20 -45 20 l-35 0
30 -41z"/>
<path d="M1880 125 c0 -20 5 -25 25 -25 20 0 25 5 25 25 0 20 -5 25 -25 25
-20 0 -25 -5 -25 -25z"/>
</g>
</svg>
