<?xml version="1.0" standalone="no"?>
<!DOCTYPE svg PUBLIC "-//W3C//DTD SVG 20010904//EN"
 "http://www.w3.org/TR/2001/REC-SVG-20010904/DTD/svg10.dtd">
<svg version="1.0" xmlns="http://www.w3.org/2000/svg"
 width="222.000000pt" height="227.000000pt" viewBox="0 0 222.000000 227.000000"
 preserveAspectRatio="xMidYMid meet">

<g transform="translate(0.000000,227.000000) scale(0.100000,-0.100000)"
fill="#000000" stroke="none">
<path d="M1165 2127 l-80 -42 -412 -5 -411 -5 -39 -31 c-78 -62 -73 -10 -73
-839 0 -700 1 -742 19 -780 10 -22 34 -54 52 -72 70 -66 28 -63 889 -63 861 0
819 -3 889 63 73 70 71 45 71 690 0 513 -2 583 -16 613 -22 46 -67 82 -119 95
l-43 11 -4 98 c-3 86 -7 102 -31 139 -48 72 -79 81 -309 81 -185 0 -197 1
-203 19 -12 39 -46 71 -73 71 -15 -1 -63 -20 -107 -43z m168 -215 l78 -152
-417 0 c-230 0 -415 2 -413 4 2 2 128 60 279 129 152 68 298 136 325 150 28
14 55 25 60 24 6 -2 45 -71 88 -155z m-434 74 c-17 -16 -546 -226 -569 -226
-96 0 -126 114 -54 200 l26 30 301 0 c165 0 298 -2 296 -4z m875 -27 c23 -28
26 -39 26 -115 l0 -85 -152 3 -151 3 -53 113 -53 112 179 0 178 0 26 -31z
m-674 -289 c626 -4 830 -8 846 -17 36 -21 44 -65 44 -258 l0 -183 -117 -4
c-103 -3 -124 -6 -162 -28 -116 -65 -121 -233 -9 -307 39 -26 50 -28 165 -32
l123 -3 0 -162 c0 -183 -7 -220 -51 -262 l-30 -29 -799 0 -799 0 -30 29 c-17
17 -36 46 -41 65 -6 22 -10 268 -10 625 l0 588 23 -8 c12 -5 393 -11 847 -14z
m888 -647 l3 -93 -105 0 c-58 0 -116 5 -129 11 -58 26 -67 108 -17 152 30 27
33 28 138 25 l107 -3 3 -92z"/>
<path d="M1800 1025 l0 -45 45 0 45 0 0 45 0 45 -45 0 -45 0 0 -45z"/>
</g>
</svg>
