<?xml version="1.0" standalone="no"?>
<!DOCTYPE svg PUBLIC "-//W3C//DTD SVG 20010904//EN"
 "http://www.w3.org/TR/2001/REC-SVG-20010904/DTD/svg10.dtd">
<svg version="1.0" xmlns="http://www.w3.org/2000/svg"
 width="50.000000pt" height="50.000000pt" viewBox="0 0 50.000000 50.000000"
 preserveAspectRatio="xMidYMid meet">

<g transform="translate(0.000000,50.000000) scale(0.100000,-0.100000)"
fill="#000000" stroke="none">
<path d="M82 403 c30 -5 30 -5 53 -121 13 -64 14 -86 5 -97 -24 -29 0 -35 133
-33 l132 2 -127 3 c-168 5 -170 23 -4 23 110 0 125 2 130 18 7 23 36 161 36
173 0 5 -67 9 -160 9 -136 0 -160 2 -160 15 0 11 -10 15 -32 14 -30 -2 -31 -2
-6 -6z m329 -125 l-17 -83 -114 0 -115 0 -11 50 c-6 28 -14 65 -17 83 l-6 32
148 0 148 0 -16 -82z"/>
<path d="M170 110 c0 -13 7 -20 20 -20 13 0 20 7 20 20 0 13 -7 20 -20 20 -13
0 -20 -7 -20 -20z m30 0 c0 -5 -4 -10 -10 -10 -5 0 -10 5 -10 10 0 6 5 10 10
10 6 0 10 -4 10 -10z"/>
<path d="M325 120 c-4 -7 -3 -16 3 -22 14 -14 45 -2 40 15 -6 16 -34 21 -43 7z
m30 -10 c3 -5 -1 -10 -10 -10 -9 0 -13 5 -10 10 3 6 8 10 10 10 2 0 7 -4 10
-10z"/>
</g>
</svg>
